<?xml version="1.0" encoding="utf-8"?>
<svg width="28" height="28"  viewBox="101 110.941 24 24" xmlns="http://www.w3.org/2000/svg">
  <defs>
    <linearGradient id="gradient-1" x1="1.044" y1="1.044" x2="16.956" y2="16.956" gradientUnits="userSpaceOnUse" gradientTransform="matrix(1, 0, 0, 1, 105.129448, 112.940689)">
      <stop stop-color="#5600B8"/>
      <stop offset="0.364" stop-color="#8729FF"/>
      <stop offset="0.682" stop-color="#DA00F2"/>
      <stop offset="0.816" stop-color="#EE25BE"/>
      <stop offset="1" stop-color="#FF6DAC"/>
    </linearGradient>
  </defs>
  <path d="M 109.629 129.441 L 109.629 117.441 L 121.629 117.441 L 121.629 123.098 C 121.629 126.178 117.129 124.941 117.129 124.941 C 117.129 124.941 118.268 129.441 115.151 129.441 L 109.629 129.441 Z M 123.129 123.73 L 123.129 115.941 L 108.129 115.941 L 108.129 130.941 L 115.771 130.941 C 118.143 130.941 123.129 125.523 123.129 123.73 Z M 115.629 124.941 L 111.879 124.941 L 111.879 124.191 L 115.629 124.191 L 115.629 124.941 Z M 119.379 121.941 L 111.879 121.941 L 111.879 122.691 L 119.379 122.691 L 119.379 121.941 Z M 119.379 119.691 L 111.879 119.691 L 111.879 120.441 L 119.379 120.441 L 119.379 119.691 Z M 120.879 114.441 L 106.629 114.441 L 106.629 128.691 L 105.129 128.691 L 105.129 112.941 L 120.879 112.941 L 120.879 114.441 Z" fill="url(#gradient-1)"/>
</svg>