<svg width="68" height="14" viewBox="0 0 68 14" fill="none" xmlns="http://www.w3.org/2000/svg">
<path d="M0.260244 13.7401C0.208721 13.7397 0.158444 13.7242 0.1157 13.6954C0.0729569 13.6666 0.0396454 13.6258 0.0199329 13.5781C0.000220329 13.5304 -0.00501811 13.478 0.00487285 13.4274C0.0147638 13.3767 0.039345 13.3301 0.0755416 13.2934L2.6057 10.7597C2.70346 10.6616 2.83603 10.6062 2.97445 10.6056H15.7792C15.8306 10.6061 15.8807 10.6217 15.9233 10.6504C15.9659 10.6792 15.9991 10.7199 16.0188 10.7675C16.0385 10.815 16.0438 10.8673 16.034 10.9178C16.0243 10.9683 15.9999 11.0149 15.9639 11.0516L13.4337 13.5853C13.336 13.6834 13.2034 13.7388 13.065 13.7394L0.260244 13.7401ZM2.97445 8.9777C2.83603 8.97712 2.70346 8.92171 2.6057 8.82357L0.0761966 6.2912C0.0402571 6.25449 0.0158797 6.20801 0.00609274 6.15755C-0.00369419 6.10708 0.00154065 6.05485 0.021147 6.00734C0.0407533 5.95983 0.073867 5.91913 0.116375 5.8903C0.158882 5.86148 0.20891 5.84579 0.260244 5.8452H13.065C13.2034 5.84578 13.336 5.90119 13.4337 5.99933L15.9639 8.52973C15.9999 8.56648 16.0243 8.61302 16.034 8.66354C16.0438 8.71407 16.0385 8.76635 16.0188 8.81389C15.9991 8.86143 15.9659 8.90212 15.9233 8.9309C15.8807 8.95967 15.8306 8.97527 15.7792 8.97573L2.97445 8.9777ZM0.260244 4.27829C0.208721 4.27794 0.158444 4.2624 0.1157 4.23359C0.0729569 4.20478 0.0396454 4.16398 0.0199329 4.11631C0.000220329 4.06864 -0.00501811 4.01621 0.00487285 3.96558C0.0147638 3.91494 0.039345 3.86835 0.0755416 3.83163L2.60636 1.30123C2.70412 1.20309 2.83669 1.14768 2.97511 1.14709H15.7792C15.8307 1.14744 15.881 1.16299 15.9237 1.1918C15.9665 1.22061 15.9998 1.2614 16.0195 1.30907C16.0392 1.35674 16.0444 1.40917 16.0346 1.45981C16.0247 1.51044 16.0001 1.55703 15.9639 1.59375L13.4337 4.12416C13.336 4.22229 13.2034 4.2777 13.065 4.27829H0.260244Z" fill="url(#paint0_linear)"/>
<path d="M21.9005 1.13402C21.904 1.25743 21.8816 1.38019 21.8348 1.4944C21.7879 1.6086 21.7178 1.71173 21.6287 1.79712C21.3961 1.99001 21.0973 2.08416 20.7963 2.05948H20.1819V3.39748H19.7647V0.197421H20.7963C21.0941 0.176396 21.3886 0.270263 21.6196 0.459775C21.712 0.545381 21.7849 0.649908 21.8334 0.766252C21.8819 0.882595 21.9048 1.00803 21.9005 1.13402V1.13402ZM20.7956 1.71711C20.9803 1.7329 21.1642 1.67885 21.3111 1.5656C21.3679 1.50971 21.412 1.44225 21.4405 1.36779C21.469 1.29333 21.4811 1.2136 21.4761 1.13402C21.4761 0.740494 21.2499 0.543729 20.7976 0.543729H20.1819V1.71907L20.7956 1.71711ZM23.5151 3.4388C23.2914 3.44186 23.0709 3.38647 22.8751 3.27811C22.6846 3.17123 22.5287 3.0119 22.4258 2.81899C22.314 2.60773 22.2581 2.37132 22.2634 2.13228C22.2585 1.89419 22.3161 1.65897 22.4304 1.45016C22.537 1.25806 22.696 1.10039 22.8889 0.995633C23.087 0.889687 23.3088 0.835968 23.5334 0.839533C23.7588 0.836237 23.9813 0.890646 24.1798 0.997601C24.3723 1.102 24.5313 1.25892 24.6383 1.45016C24.7534 1.65944 24.8112 1.89542 24.806 2.13425C24.8105 2.37466 24.7503 2.61184 24.6318 2.82096C24.5223 3.01447 24.361 3.1735 24.1661 3.28008C23.9661 3.38759 23.742 3.44222 23.5151 3.4388V3.4388ZM23.5151 3.07151C23.6623 3.07215 23.8073 3.03585 23.9369 2.96591C24.0721 2.89329 24.1837 2.78334 24.2584 2.64912C24.3437 2.4915 24.3857 2.31408 24.3803 2.13491C24.385 1.95581 24.343 1.77858 24.2584 1.62069C24.187 1.48782 24.0788 1.37848 23.9467 1.30587C23.8185 1.23691 23.675 1.20128 23.5295 1.20224C23.383 1.20067 23.2386 1.23632 23.1096 1.30587C22.9793 1.37846 22.8734 1.48799 22.8051 1.62069C22.7244 1.77976 22.685 1.95659 22.6904 2.13491C22.6846 2.31443 22.7231 2.49262 22.8024 2.65371C22.8692 2.7862 22.9739 2.8958 23.1031 2.96854C23.2296 3.03679 23.3714 3.07156 23.5151 3.06954V3.07151ZM28.7005 0.881509L27.9165 3.39748H27.4855L26.8783 1.40031L26.2751 3.39748H25.8441L25.0582 0.881509H25.4846L26.0622 2.99346L26.6858 0.881509H27.1122L27.7219 2.99805L28.2905 0.881509H28.7005ZM31.4055 2.04308C31.4053 2.12743 31.4007 2.21172 31.3918 2.2956H29.3836C29.385 2.40462 29.4083 2.51224 29.4521 2.61207C29.4958 2.7119 29.5592 2.8019 29.6384 2.87671C29.7921 3.01591 29.9932 3.09079 30.2004 3.08594C30.3605 3.09176 30.5184 3.04751 30.6523 2.95935C30.7715 2.87738 30.8609 2.75884 30.9071 2.62157H31.3564C31.2926 2.85847 31.1504 3.06662 30.9529 3.21187C30.7343 3.36883 30.4699 3.44886 30.201 3.43946C29.9775 3.44316 29.757 3.38773 29.5618 3.27877C29.3734 3.17119 29.2198 3.01187 29.119 2.81965C29.0086 2.60795 28.9534 2.37173 28.9585 2.13294C28.9532 1.89551 29.0068 1.66048 29.1144 1.44885C29.2131 1.25828 29.3654 1.10092 29.5526 0.996289C29.7514 0.888143 29.9748 0.833668 30.201 0.838221C30.4219 0.833837 30.6401 0.887669 30.8337 0.994321C31.0131 1.0942 31.1603 1.24323 31.2581 1.42393C31.3591 1.61439 31.4098 1.8275 31.4055 2.04308V2.04308ZM30.9745 1.95454C30.9785 1.81027 30.942 1.66779 30.8691 1.5433C30.8009 1.43008 30.7015 1.33898 30.5829 1.28094C30.458 1.22047 30.3207 1.18993 30.182 1.19174C29.9831 1.18714 29.79 1.25949 29.643 1.39376C29.4889 1.54045 29.3976 1.7412 29.3882 1.95388L30.9745 1.95454ZM32.3729 1.28881C32.4426 1.14883 32.5516 1.03233 32.6866 0.953657C32.8389 0.869985 33.0108 0.828761 33.1844 0.834286V1.26586H33.0744C32.6067 1.26586 32.3729 1.5199 32.3729 2.028V3.39748H31.9557V0.881509H32.3729V1.28881ZM35.9582 2.04177C35.958 2.12612 35.9534 2.21041 35.9445 2.29429H33.9363C33.9377 2.4033 33.961 2.51093 34.0048 2.61076C34.0485 2.71059 34.1119 2.80058 34.1911 2.8754C34.3448 3.01459 34.5459 3.08948 34.7531 3.08463C34.9132 3.09044 35.0711 3.0462 35.205 2.95804C35.3242 2.87607 35.4136 2.75752 35.4598 2.62026H35.9091C35.8454 2.85716 35.7031 3.06531 35.5056 3.21056C35.287 3.36752 35.0226 3.44755 34.7537 3.43815C34.5302 3.44185 34.3097 3.38642 34.1145 3.27746C33.9261 3.16988 33.7725 3.01056 33.6717 2.81834C33.5613 2.60664 33.5061 2.37042 33.5112 2.13163C33.506 1.8942 33.5595 1.65917 33.6671 1.44754C33.7658 1.25697 33.9181 1.09961 34.1053 0.994977C34.3041 0.886831 34.5275 0.832356 34.7537 0.836909C34.9746 0.832525 35.1928 0.886357 35.3864 0.99301C35.5658 1.09289 35.713 1.24192 35.8109 1.42261C35.912 1.61347 35.9627 1.82706 35.9582 2.04308V2.04177ZM35.5272 1.95454C35.5312 1.81027 35.4947 1.66779 35.4218 1.5433C35.3536 1.43008 35.2542 1.33898 35.1356 1.28094C35.0107 1.22047 34.8734 1.18993 34.7347 1.19174C34.5358 1.18714 34.3427 1.25949 34.1957 1.39376C34.0416 1.54045 33.9503 1.7412 33.9409 1.95388L35.5272 1.95454ZM36.3525 2.129C36.3469 1.89429 36.3998 1.66189 36.5064 1.45279C36.6044 1.26493 36.753 1.10836 36.9354 1.00088C37.121 0.89277 37.3325 0.837225 37.5472 0.840189C37.7375 0.838971 37.9251 0.885656 38.0928 0.975957C38.2512 1.05728 38.3844 1.18044 38.4779 1.3321V0H38.8997V3.39748H38.4779V2.92459C38.3913 3.07886 38.2645 3.20671 38.1111 3.29451C37.9383 3.39363 37.7417 3.44353 37.5426 3.4388C37.3288 3.44126 37.1186 3.38403 36.9354 3.27352C36.7518 3.16125 36.6031 2.9997 36.5064 2.80719C36.4009 2.59747 36.348 2.36512 36.3525 2.13031V2.129ZM38.4799 2.13359C38.484 1.96128 38.4445 1.79072 38.3652 1.63774C38.2945 1.50304 38.1874 1.39098 38.0561 1.31439C37.9257 1.23934 37.7775 1.20062 37.6271 1.20224C37.4777 1.20055 37.3306 1.23857 37.2007 1.31243C37.07 1.38829 36.9635 1.49974 36.8935 1.63381C36.8142 1.78679 36.7748 1.95735 36.7789 2.12966C36.7747 2.30429 36.8141 2.4772 36.8935 2.63272C36.963 2.76881 37.0695 2.88249 37.2007 2.96066C37.3301 3.03606 37.4774 3.07504 37.6271 3.07348C37.7776 3.0749 37.9257 3.03595 38.0561 2.96066C38.1882 2.883 38.2954 2.76924 38.3652 2.63272C38.4443 2.47896 38.4837 2.30782 38.4799 2.13491V2.13359ZM41.2491 1.34653C41.339 1.19232 41.4689 1.06539 41.625 0.979236C41.7971 0.882604 41.9917 0.833486 42.189 0.836909C42.4031 0.833706 42.614 0.88928 42.7988 0.997601C42.98 1.10565 43.1277 1.26214 43.2251 1.44951C43.3341 1.65957 43.3886 1.89367 43.3836 2.13031C43.3867 2.3655 43.3323 2.59787 43.2251 2.80719C43.1282 2.99865 42.9799 3.15924 42.7968 3.2709C42.6135 3.38152 42.403 3.43876 42.189 3.43618C41.9887 3.44194 41.7905 3.39369 41.6152 3.29648C41.4615 3.21143 41.3338 3.08604 41.2458 2.93377V3.39748H40.8293V0H41.2465L41.2491 1.34653ZM42.952 2.12703C42.9561 1.95472 42.9167 1.78416 42.8374 1.63119C42.7671 1.4967 42.6598 1.38517 42.5282 1.3098C42.3976 1.23616 42.2499 1.19817 42.0999 1.19961C41.9524 1.20033 41.8078 1.24016 41.6807 1.31505C41.5482 1.393 41.4402 1.50662 41.3689 1.64299C41.2885 1.79494 41.2482 1.96494 41.2517 2.13687C41.2478 2.31031 41.2882 2.48188 41.3689 2.63535C41.4402 2.77172 41.5482 2.88534 41.6807 2.96329C41.8094 3.03805 41.9557 3.077 42.1045 3.0761C42.255 3.07589 42.4026 3.03536 42.5322 2.9587C42.6643 2.88104 42.7715 2.76728 42.8413 2.63075C42.9199 2.4759 42.9588 2.30395 42.9546 2.13031L42.952 2.12703ZM46.0959 0.880853L44.5822 4.58201H44.1513L44.6464 3.36994L43.6332 0.881509H44.0963L44.8822 2.92L45.6616 0.881509L46.0959 0.880853Z" fill="black"/>
<path d="M37.3245 7.37799C37.2979 7.37807 37.2715 7.38344 37.2469 7.3938C37.2224 7.40415 37.2001 7.41929 37.1814 7.43831C37.1627 7.45734 37.1479 7.47988 37.138 7.50465C37.1281 7.52942 37.1231 7.55594 37.1235 7.58263V13.4239C37.1233 13.4777 37.1443 13.5293 37.182 13.5677C37.2196 13.606 37.2708 13.6279 37.3245 13.6285H41.9997C42.0276 13.628 42.055 13.6219 42.0806 13.6106C42.1061 13.5994 42.1291 13.5832 42.1484 13.563L42.7332 12.9333C42.7604 12.9042 42.7785 12.8678 42.7853 12.8286C42.7921 12.7893 42.7873 12.749 42.7715 12.7124C42.7557 12.6759 42.7296 12.6447 42.6964 12.6228C42.6632 12.6009 42.6243 12.5891 42.5846 12.589H38.5035C38.4768 12.5889 38.4504 12.5835 38.4259 12.5732C38.4013 12.5628 38.379 12.5477 38.3603 12.5287C38.3416 12.5096 38.3269 12.4871 38.3169 12.4623C38.307 12.4375 38.3021 12.411 38.3024 12.3843V7.57867C38.3026 7.52491 38.2816 7.47327 38.2439 7.43495C38.2062 7.39663 38.155 7.37471 38.1013 7.37402H37.3239L37.3245 7.37799Z" fill="#040505"/>
<path d="M34.083 7.38135H29.8381C29.5493 7.39506 29.276 7.51613 29.0716 7.72086C28.8671 7.92559 28.7462 8.19926 28.7325 8.48847V12.4664C28.732 12.7649 28.8467 13.0519 29.0528 13.2675C29.2589 13.4831 29.5404 13.6104 29.8381 13.6227H34.0798C34.377 13.6088 34.6575 13.481 34.8633 13.2658C35.069 13.0506 35.1843 12.7644 35.1854 12.4664V8.49176C35.1742 8.20196 35.0546 7.92697 34.8504 7.7213C34.6463 7.51563 34.3724 7.39429 34.083 7.38135V7.38135ZM33.9809 11.657V11.6879C33.9816 11.875 33.9102 12.0551 33.7816 12.1909C33.653 12.3266 33.4771 12.4075 33.2905 12.4166H30.632C30.4454 12.4075 30.2694 12.3266 30.1409 12.1909C30.0123 12.0551 29.9409 11.875 29.9416 11.6879V9.18571C29.9483 9.00389 30.023 8.83123 30.1509 8.70196C30.2788 8.5727 30.4505 8.49626 30.632 8.48783H33.2918C33.4732 8.49671 33.6446 8.57327 33.7724 8.70244C33.9002 8.83161 33.975 9.00403 33.9822 9.18571L33.9809 11.657Z" fill="#040505"/>
<path d="M49.5299 13.4272C49.5297 13.4809 49.5508 13.5326 49.5884 13.5709C49.6261 13.6093 49.6773 13.6311 49.731 13.6318H50.5235C50.5502 13.6317 50.5766 13.6264 50.6011 13.616C50.6257 13.6057 50.648 13.5905 50.6667 13.5715C50.6854 13.5525 50.7001 13.5299 50.7101 13.5052C50.72 13.4804 50.7249 13.4539 50.7246 13.4272V8.59331V8.54347C50.7263 8.24681 50.6135 7.96095 50.4099 7.74551C50.2062 7.53007 49.9273 7.40168 49.6314 7.38715H45.5104C45.3593 7.388 45.2099 7.41869 45.0706 7.47746C44.9314 7.53623 44.8051 7.62195 44.699 7.72966C44.5929 7.83737 44.5091 7.96499 44.4523 8.1052C44.3955 8.24541 44.3669 8.39546 44.3681 8.54675V8.59659V13.4305C44.3679 13.4842 44.3889 13.5359 44.4266 13.5742C44.4642 13.6125 44.5155 13.6344 44.5692 13.6351H45.3617C45.3884 13.635 45.4147 13.6296 45.4393 13.6193C45.4639 13.6089 45.4862 13.5938 45.5049 13.5748C45.5236 13.5557 45.5383 13.5332 45.5482 13.5084C45.5582 13.4837 45.5631 13.4572 45.5628 13.4305V11.4182C45.5626 11.3645 45.5836 11.3128 45.6213 11.2745C45.6589 11.2361 45.7102 11.2143 45.7638 11.2136H49.3367C49.3634 11.2137 49.3897 11.219 49.4143 11.2294C49.4389 11.2397 49.4612 11.2549 49.4799 11.2739C49.4986 11.2929 49.5133 11.3155 49.5232 11.3403C49.5332 11.365 49.5381 11.3915 49.5378 11.4182V13.4272H49.5299ZM45.5575 10.1006V9.09243C45.5569 9.00018 45.5745 8.90875 45.6092 8.8233C45.6439 8.73784 45.695 8.66005 45.7597 8.59439C45.8245 8.52874 45.9015 8.47649 45.9863 8.44063C46.0712 8.40477 46.1623 8.38599 46.2544 8.38538H48.837C48.9291 8.38599 49.0202 8.40477 49.1051 8.44063C49.1899 8.47649 49.2669 8.52874 49.3316 8.59439C49.3964 8.66005 49.4475 8.73784 49.4822 8.8233C49.5169 8.90875 49.5345 9.00018 49.5339 9.09243V10.0973C49.534 10.151 49.513 10.2027 49.4754 10.241C49.4377 10.2793 49.3865 10.3012 49.3328 10.3019H45.7599C45.7334 10.302 45.7071 10.2968 45.6825 10.2867C45.658 10.2766 45.6356 10.2617 45.6168 10.243C45.598 10.2242 45.5831 10.2019 45.573 10.1773C45.5628 10.1528 45.5575 10.1265 45.5575 10.0999V10.1006Z" fill="#040505"/>
<path d="M66.2658 13.632C66.2391 13.6319 66.2127 13.6265 66.1882 13.6162C66.1636 13.6058 66.1413 13.5907 66.1227 13.5717C66.104 13.5526 66.0892 13.5301 66.0793 13.5053C66.0693 13.4805 66.0644 13.454 66.0647 13.4273V11.4151C66.0649 11.3613 66.0439 11.3097 66.0062 11.2713C65.9686 11.233 65.9173 11.2111 65.8636 11.2105H62.2502C62.2235 11.2105 62.1971 11.2159 62.1726 11.2263C62.148 11.2366 62.1257 11.2518 62.107 11.2708C62.0883 11.2898 62.0736 11.3123 62.0636 11.3371C62.0537 11.3619 62.0488 11.3884 62.0491 11.4151V13.4273C62.0493 13.4811 62.0282 13.5327 61.9906 13.5711C61.9529 13.6094 61.9017 13.6313 61.848 13.632H61.0489C61.0223 13.6319 60.9959 13.6265 60.9713 13.6162C60.9468 13.6058 60.9245 13.5907 60.9058 13.5717C60.8871 13.5526 60.8723 13.5301 60.8624 13.5053C60.8525 13.4805 60.8475 13.454 60.8479 13.4273V8.59348V8.54364C60.8477 8.23661 60.9692 7.94204 61.1857 7.72463C61.4022 7.50721 61.696 7.38473 62.0026 7.38403H66.1669C66.4641 7.398 66.7446 7.52578 66.9504 7.741C67.1562 7.95621 67.2715 8.2424 67.2725 8.54036V8.5902V13.4241C67.2727 13.4778 67.2517 13.5295 67.214 13.5678C67.1764 13.6061 67.1251 13.628 67.0714 13.6287H66.2664L66.2658 13.632ZM62.0484 9.09588V10.1007C62.0482 10.1544 62.0693 10.2061 62.107 10.2444C62.1446 10.2828 62.1958 10.3046 62.2495 10.3053H65.863C65.8897 10.3052 65.916 10.2999 65.9406 10.2895C65.9652 10.2792 65.9875 10.264 66.0062 10.245C66.0249 10.226 66.0396 10.2034 66.0495 10.1787C66.0595 10.1539 66.0644 10.1274 66.0641 10.1007V9.09588C66.0644 8.90882 65.9906 8.72926 65.8588 8.59668C65.727 8.46411 65.5481 8.38936 65.3613 8.38884H62.7512C62.6586 8.38884 62.567 8.40715 62.4815 8.44272C62.396 8.47829 62.3184 8.53042 62.2531 8.59612C62.1878 8.66182 62.1361 8.73978 62.101 8.82555C62.0659 8.91131 62.048 9.00319 62.0484 9.09588V9.09588Z" fill="#040505"/>
<path d="M53.7119 7.38137C53.741 7.38097 53.7698 7.38719 53.7961 7.39958C53.8224 7.41196 53.8456 7.43019 53.8639 7.45286L57.4184 11.6977C57.4451 11.7291 57.4807 11.7515 57.5205 11.7619C57.5602 11.7723 57.6022 11.7701 57.6408 11.7558C57.6793 11.7415 57.7125 11.7157 57.7359 11.6818C57.7592 11.648 57.7717 11.6078 57.7714 11.5666V7.58865C57.7713 7.53489 57.7923 7.48322 57.83 7.4449C57.8676 7.40658 57.9188 7.3847 57.9725 7.38401H58.7651C58.7917 7.38409 58.8181 7.38947 58.8427 7.39982C58.8672 7.41017 58.8895 7.42531 58.9082 7.44434C58.9269 7.46336 58.9416 7.4859 58.9516 7.51067C58.9615 7.53544 58.9665 7.56196 58.9661 7.58865V13.4299C58.9663 13.4837 58.9453 13.5354 58.9076 13.5737C58.87 13.612 58.8187 13.6339 58.7651 13.6346H57.7826C57.7809 13.6346 57.7792 13.6339 57.778 13.6326C57.7767 13.6314 57.776 13.6297 57.776 13.628C57.776 13.628 57.776 13.628 57.776 13.6215L54.1593 9.40807C54.1325 9.37709 54.0969 9.35503 54.0572 9.34486C54.0176 9.33469 53.9758 9.33688 53.9374 9.35114C53.899 9.3654 53.8659 9.39107 53.8425 9.42468C53.819 9.45829 53.8064 9.49826 53.8062 9.53925V13.4306C53.8064 13.4844 53.7854 13.536 53.7478 13.5743C53.7101 13.6126 53.6589 13.6346 53.6052 13.6353H52.8061C52.7795 13.6352 52.7531 13.6298 52.7285 13.6194C52.7039 13.6091 52.6817 13.594 52.663 13.5749C52.6443 13.5559 52.6295 13.5333 52.6196 13.5085C52.6096 13.4838 52.6047 13.4573 52.605 13.4306V7.58601C52.6049 7.53225 52.6259 7.48057 52.6636 7.44225C52.7012 7.40393 52.7524 7.38206 52.8061 7.38137H53.7119Z" fill="#040505"/>
<path d="M22.81 11.0808H25.2391C25.5802 11.0808 25.8572 11.3625 25.8572 11.7098C25.8572 12.0573 25.5802 12.3389 25.2391 12.3389H22.3088C22.2631 12.3389 22.2189 12.3555 22.184 12.3858L21.2995 13.1564C21.1642 13.2744 21.2459 13.5002 21.4243 13.5002H25.0926L25.0952 13.4974L25.0982 13.4946C25.1443 13.4983 25.1908 13.5002 25.238 13.5002C26.211 13.5002 27 12.6986 27 11.7098C27 10.7709 26.2886 10.0008 25.3834 9.92558L25.3808 9.92256L25.3778 9.91955H22.7609C22.4194 9.91955 22.1428 9.63792 22.1428 9.29053C22.1428 8.94309 22.4194 8.66147 22.7609 8.66147H25.687C25.735 8.66147 25.7815 8.64302 25.8167 8.60981L26.6383 7.8392C26.7669 7.71865 26.6833 7.50019 26.5082 7.50019H22.81C22.7942 7.49977 22.7777 7.50019 22.762 7.50019C21.789 7.50019 21 8.30174 21 9.29053C21 10.2793 21.789 11.0808 22.762 11.0808C22.7777 11.0808 22.7942 11.0812 22.81 11.0808Z" fill="#040505"/>
<defs>
<linearGradient id="paint0_linear" x1="8.01971" y1="1.14709" x2="8.01971" y2="13.7401" gradientUnits="userSpaceOnUse">
<stop stop-color="#0BF2A8"/>
<stop offset="1" stop-color="#D524FC"/>
</linearGradient>
</defs>
</svg>
