<svg width="141" height="24" viewBox="0 0 141 24" fill="none" xmlns="http://www.w3.org/2000/svg">
<path d="M8.09107 23.7438C6.68291 23.7655 5.28512 23.4994 3.98314 22.9618C2.8309 22.4921 1.83081 21.7126 1.09342 20.7092C0.374409 19.6951 -0.00805192 18.4804 0.000128543 17.2367H4.686C4.69687 17.6367 4.78665 18.0305 4.95015 18.3956C5.11364 18.7607 5.34764 19.0898 5.63866 19.364C6.21146 19.8855 6.99768 20.1462 7.99731 20.1462C9.01772 20.1462 9.81956 19.9012 10.4028 19.4112C10.6863 19.1791 10.9126 18.8849 11.0644 18.5513C11.2161 18.2177 11.2892 17.8536 11.278 17.4872C11.2886 17.1952 11.2417 16.904 11.1398 16.6303C11.0379 16.3565 10.8832 16.1056 10.6844 15.8917C10.2666 15.4598 9.76029 15.1236 9.20037 14.9063C8.39741 14.5975 7.57881 14.3313 6.74796 14.1086C5.56998 13.7777 4.41652 13.3648 3.29601 12.8729C2.39658 12.4542 1.61385 11.8202 1.01682 11.0271C0.380756 10.2033 0.0627249 9.10323 0.0627249 7.72687C0.0355171 6.52869 0.373293 5.35062 1.03111 4.3494C1.70521 3.36669 2.64927 2.60067 3.74905 2.14403C5.01445 1.61357 6.37621 1.35254 7.74779 1.37752C9.9963 1.37752 11.8238 1.92497 13.2303 3.01988C14.6367 4.11479 15.4125 5.64248 15.5575 7.60293H10.7464C10.731 7.24237 10.6379 6.88942 10.4734 6.56828C10.309 6.24715 10.0771 5.96543 9.79374 5.74246C9.11911 5.22577 8.28338 4.96533 7.43509 5.00744C6.69568 4.96977 5.96799 5.20388 5.38885 5.66576C5.12665 5.90609 4.92173 6.20235 4.78924 6.53265C4.65675 6.86295 4.60008 7.21884 4.6234 7.57402C4.61586 7.84278 4.66326 8.11025 4.7627 8.35999C4.86213 8.60974 5.0115 8.83649 5.20163 9.02633C5.61466 9.43043 6.10296 9.74932 6.63877 9.96487C7.21157 10.2047 8.01856 10.4814 9.05974 10.7949C10.2442 11.1268 11.403 11.5442 12.5271 12.044C13.4379 12.4733 14.2311 13.1173 14.8389 13.9208C15.4845 14.755 15.8073 15.85 15.8073 17.2055C15.8129 18.3533 15.4991 19.4799 14.9012 20.4591C14.261 21.4927 13.34 22.3224 12.2462 22.851C10.9514 23.4744 9.5272 23.7804 8.09107 23.7438ZM38.8319 0.375443V23.5248H34.4587V0.375443H38.8319ZM63.7924 6.13145C65.7917 6.13145 67.4209 6.76229 68.6801 8.02397C69.9392 9.28565 70.5692 11.1157 70.57 13.5141V23.5248H68.4151V13.7645C68.4151 11.9084 67.9673 10.4903 67.0717 9.51006C66.1761 8.52983 64.9578 8.03971 63.4168 8.03971C61.8131 8.03971 60.5323 8.57152 59.5744 9.63514C58.6165 10.6988 58.1374 12.2418 58.137 14.2643V23.5248H55.9816V13.7645C55.9816 11.9084 55.5338 10.4903 54.6382 9.51006C53.7426 8.52983 52.5135 8.03971 50.951 8.03971C49.3473 8.03971 48.0665 8.57152 47.1086 9.63514C46.1507 10.6988 45.6719 12.2418 45.6723 14.2643V23.5248H43.4854V6.44429H45.6723V9.38497C46.1775 8.35937 46.9843 7.51332 47.9841 6.96064C49.0087 6.40126 50.1599 6.1154 51.3269 6.13059C52.6987 6.10111 54.0497 6.47067 55.2161 7.19449C56.3534 7.93282 57.2069 9.03563 57.6371 10.3227C58.0381 9.0421 58.8721 7.94146 59.9957 7.20994C61.1279 6.4855 62.4478 6.11044 63.7913 6.13145H63.7924ZM76.5069 3.22224C76.2974 3.22514 76.0895 3.18501 75.896 3.10432C75.7026 3.02364 75.5277 2.90411 75.3822 2.75312C75.2293 2.60239 75.109 2.42195 75.0284 2.22289C74.9478 2.02382 74.9088 1.81036 74.9137 1.59562C74.9078 1.3831 74.9464 1.17169 75.0271 0.975039C75.1078 0.778384 75.2287 0.600845 75.3822 0.45387C75.5299 0.30693 75.7056 0.191091 75.8987 0.113177C76.0919 0.0352632 76.2987 -0.00314914 76.5069 0.000201796C76.7151 -0.00314914 76.9219 0.0352632 77.1151 0.113177C77.3082 0.191091 77.4839 0.30693 77.6316 0.45387C77.785 0.600845 77.906 0.778384 77.9867 0.975039C78.0674 1.17169 78.106 1.3831 78.1001 1.59562C78.105 1.81036 78.066 2.02382 77.9854 2.22289C77.9048 2.42195 77.7844 2.60239 77.6316 2.75312C77.4859 2.9042 77.3109 3.02375 77.1172 3.10439C76.9236 3.18503 76.7155 3.22505 76.5057 3.22196L76.5069 3.22224ZM77.6002 6.44429V23.5248H75.4133V6.44429H77.6002ZM90.5645 6.13145C92.6055 6.13145 94.2716 6.76229 95.5628 8.02397C96.854 9.28565 97.4995 11.1157 97.4995 13.5141V23.5248H95.3441V13.7645C95.3441 11.9084 94.8807 10.4903 93.9538 9.51006C93.027 8.52983 91.7618 8.03971 90.1583 8.03971C88.5131 8.03971 87.201 8.56112 86.2222 9.60394C85.2433 10.6468 84.7536 12.1796 84.753 14.2024V23.5248H82.5662V6.44429H84.753V9.35349C85.2714 8.33444 86.0895 7.49915 87.0968 6.96036C88.1644 6.3963 89.3568 6.11119 90.5636 6.13145H90.5645ZM105.185 8.28988V18.8948C105.185 19.9376 105.382 20.6571 105.778 21.0533C106.174 21.4494 106.871 21.6479 107.87 21.6489H109.87V23.526H107.526C105.985 23.526 104.839 23.1662 104.09 22.4466C103.34 21.727 102.965 20.544 102.965 18.8974V8.28988H100.591V6.44429H102.965V2.15834H105.183V6.444H109.869V8.28959L105.185 8.28988ZM128.895 14.1086C128.895 14.8594 128.875 15.4329 128.833 15.8291H114.68C114.707 16.9961 115.029 18.1373 115.618 19.145C116.148 20.0327 116.916 20.7536 117.835 21.2256C118.764 21.6981 119.794 21.9395 120.836 21.9294C122.107 21.9719 123.359 21.6105 124.412 20.897C125.365 20.2302 126.047 19.2419 126.333 18.1129H128.645C128.254 19.7425 127.31 21.1855 125.974 22.1953C124.61 23.2484 122.897 23.775 120.835 23.775C119.328 23.7995 117.842 23.4273 116.524 22.6956C115.257 21.9801 114.222 20.9162 113.54 19.6299C112.796 18.1971 112.425 16.5991 112.462 14.9844C112.426 13.3667 112.791 11.7652 113.524 10.3232C114.191 9.03137 115.223 7.96498 116.491 7.25746C117.823 6.53233 119.32 6.16547 120.836 6.1927C122.327 6.15878 123.799 6.52609 125.1 7.25631C126.285 7.93062 127.258 8.92169 127.912 10.1186C128.574 11.3429 128.912 12.7164 128.894 14.1086H128.895ZM126.677 14.0459C126.732 12.911 126.466 11.7837 125.912 10.7923C125.402 9.91641 124.647 9.20974 123.74 8.76014C122.808 8.29821 121.78 8.06285 120.741 8.0732C119.206 8.03924 117.718 8.59957 116.586 9.63743C115.441 10.6802 114.805 12.1506 114.68 14.0485L126.677 14.0459ZM135.081 9.47857C135.536 8.44235 136.307 7.57716 137.283 7.0073C138.395 6.39254 139.653 6.08994 140.923 6.13145V8.41524H140.329C138.747 8.41524 137.476 8.84277 136.518 9.69782C135.56 10.5529 135.081 11.9814 135.081 13.9835V23.5248H132.894V6.44429H135.081L135.081 9.47857Z" fill="black"/>
<path d="M24.798 23.5623C28.6655 23.5623 31.8007 20.4868 31.8007 16.6929C31.8007 12.899 28.6655 9.82349 24.798 9.82349C20.9304 9.82349 17.7952 12.899 17.7952 16.6929C17.7952 20.4868 20.9304 23.5623 24.798 23.5623Z" fill="black"/>
<path d="M24.6548 16.4067C23.298 16.4068 21.9717 16.0039 20.8435 15.2491C19.7154 14.4943 18.8361 13.4214 18.3169 12.1662C17.7976 10.9109 17.6618 9.52967 17.9265 8.1971C18.1912 6.86453 18.8446 5.64049 19.804 4.67978C21.0905 3.39148 22.8354 2.66772 24.6548 2.66772C26.4742 2.66772 28.2191 3.39148 29.5056 4.67978C30.7921 5.96808 31.5149 7.71539 31.5149 9.53732C31.5149 11.3593 30.7921 13.1066 29.5056 14.3949C28.8701 15.0347 28.1141 15.542 27.2814 15.8874C26.4488 16.2327 25.556 16.4092 24.6548 16.4067ZM24.6548 4.23928C23.6084 4.23928 22.5855 4.55001 21.7155 5.13216C20.8454 5.71432 20.1673 6.54176 19.7669 7.50985C19.3664 8.47794 19.2616 9.5432 19.4658 10.5709C19.6699 11.5986 20.1738 12.5427 20.9137 13.2836C21.6536 14.0245 22.5964 14.5291 23.6226 14.7336C24.6489 14.938 25.7127 14.8331 26.6795 14.4321C27.6462 14.0311 28.4725 13.352 29.0538 12.4808C29.6352 11.6095 29.9455 10.5852 29.9455 9.53732C29.9439 8.13268 29.386 6.78603 28.3941 5.7928C27.4023 4.79957 26.0575 4.24087 24.6548 4.23928Z" fill="url(#paint0_linear)"/>
<defs>
<linearGradient id="paint0_linear" x1="27.2753" y1="3.8905" x2="24.6479" y2="16.4053" gradientUnits="userSpaceOnUse">
<stop stop-color="#F9E2FF" stop-opacity="0.51"/>
<stop offset="0.414" stop-color="#B133CF"/>
<stop offset="1" stop-color="#591A68"/>
</linearGradient>
</defs>
</svg>
