<svg width="22" height="20" viewBox="0 0 22 20" fill="none" xmlns="http://www.w3.org/2000/svg">
<path d="M20.3941 0.223477L0.856192 8.28517C0.856192 8.28517 -0.0675743 8.61821 0.00367527 9.23266C0.0749248 9.84712 0.83079 10.1292 0.83079 10.1292L5.74701 11.8699C5.74701 11.8699 7.23396 16.9896 7.52267 17.9641C7.81139 18.9386 8.0493 18.9583 8.0493 18.9583C8.13485 18.9918 8.22771 19.0026 8.31874 18.9896C8.40977 18.9767 8.49585 18.9405 8.56849 18.8846L11.745 15.8381L16.6953 19.8321C16.8562 19.9233 17.0353 19.9786 17.2201 19.9939C17.4048 20.0093 17.5907 19.9844 17.7647 19.921C17.9387 19.8576 18.0966 19.7572 18.2274 19.6269C18.3582 19.4966 18.4586 19.3395 18.5217 19.1666L22 0.708285C22 -0.521246 20.3941 0.223477 20.3941 0.223477ZM16.935 17.6815L11.639 13.4104L9.99534 14.9858L10.3565 11.6334L17.4158 4.9972L7.79342 10.6644L3.52526 9.1534L19.8098 2.43123L16.935 17.6815Z" fill="#4A1D54"/>
</svg>
