<svg width="22" height="18" viewBox="0 0 22 18" fill="none" xmlns="http://www.w3.org/2000/svg">
<path d="M21.9406 3.03234C21.1185 3.37971 20.2489 3.60831 19.3592 3.71094C20.2993 3.18206 21.0063 2.33302 21.3447 1.32662C20.4514 1.81069 19.4869 2.15715 18.4853 2.35374C18.0585 1.92166 17.5463 1.5786 16.9798 1.34531C16.4132 1.11203 15.8041 0.993385 15.1892 0.996534C14.0103 0.982626 12.8739 1.42559 12.0289 2.22834C11.184 3.03108 10.6996 4.12812 10.6818 5.27898C10.6823 5.6118 10.7224 5.94344 10.8013 6.26724C9.01893 6.18989 7.27253 5.75171 5.67289 4.98047C4.07325 4.20923 2.65529 3.12176 1.509 1.78713C1.11044 2.43775 0.897906 3.18083 0.893528 3.93891C0.892009 4.65045 1.07516 5.35077 1.4259 5.97451C1.77663 6.59826 2.28351 7.1251 2.89923 7.50586C2.18382 7.4815 1.48391 7.29568 0.854386 6.96297V7.02094C0.859909 8.02346 1.2241 8.9926 1.88401 9.76074C2.54391 10.5289 3.45804 11.0477 4.4683 11.2276C3.80751 11.3987 3.1162 11.4252 2.4437 11.3054C2.74509 12.1694 3.31389 12.9206 4.07153 13.4554C4.82916 13.9901 5.73822 14.282 6.67309 14.2906C5.06478 15.4905 3.09589 16.1389 1.07169 16.1353C0.713648 16.1355 0.355873 16.1164 0 16.078C2.07851 17.342 4.48074 18.0067 6.92954 17.9952C8.59684 18.0292 10.2544 17.7389 11.8056 17.1411C13.3567 16.5433 14.7705 15.65 15.9644 14.5133C17.1582 13.3766 18.1084 12.0192 18.7594 10.5203C19.4104 9.02145 19.7492 7.41102 19.7561 5.78298C19.7595 5.60181 19.7529 5.42061 19.7365 5.24012C20.6197 4.63301 21.386 3.87822 22 3.01061L21.9406 3.03234Z" fill="#4A1D54"/>
</svg>
